<?xml version="1.0" standalone="no"?>
<!DOCTYPE svg PUBLIC "-//W3C//DTD SVG 20010904//EN"
 "http://www.w3.org/TR/2001/REC-SVG-20010904/DTD/svg10.dtd">
<svg version="1.0" xmlns="http://www.w3.org/2000/svg"
 width="500.000000pt" height="500.000000pt" viewBox="0 0 500.000000 500.000000"
 preserveAspectRatio="xMidYMid meet">
<metadata>
Created by potrace 1.11, written by Peter Selinger 2001-2013
</metadata>
<g transform="translate(0.000000,500.000000) scale(0.100000,-0.100000)"
fill="#000000" stroke="none">
<path d="M0 2500 l0 -2500 2500 0 2500 0 0 2500 0 2500 -2500 0 -2500 0 0
-2500z m2552 2213 c70 -38 136 -116 196 -231 53 -101 116 -275 147 -399 9 -40
20 -73 24 -73 3 0 67 15 141 34 165 42 263 56 385 56 245 0 375 -88 375 -254
0 -151 -103 -328 -323 -553 l-110 -112 84 -80 c67 -64 86 -78 100 -70 48 25
128 -1 154 -51 20 -38 19 -100 -1 -129 -16 -22 -15 -27 24 -100 217 -410 -73
-591 -692 -431 -61 16 -118 31 -127 35 -13 5 -21 -12 -43 -101 -58 -230 -143
-415 -241 -522 -244 -267 -511 -50 -660 536 -15 62 -26 86 -36 84 -8 -1 -63
-15 -124 -31 -107 -27 -110 -29 -121 -61 -18 -54 -66 -90 -120 -90 -52 0 -89
21 -110 61 -13 26 -20 29 -67 29 -68 0 -175 23 -224 49 -22 11 -56 37 -75 59
-128 141 -28 399 272 706 l106 108 -69 67 c-243 234 -385 484 -363 636 33 216
330 275 784 154 62 -16 117 -27 121 -25 4 3 13 31 20 63 7 32 24 93 37 135
l24 77 -24 25 c-70 77 -12 206 93 206 31 0 40 5 56 33 23 40 99 122 139 150
76 54 161 57 248 10z m-957 -3177 c49 -21 68 -64 73 -169 5 -102 -9 -165 -45
-199 -21 -20 -35 -23 -98 -23 -64 0 -77 3 -99 24 -37 34 -49 90 -44 202 3 70
8 103 22 123 33 52 121 71 191 42z m384 3 c41 -15 51 -35 51 -107 0 -54 -3
-63 -28 -84 -25 -21 -27 -26 -16 -43 21 -33 63 -154 55 -159 -4 -3 -18 25 -31
62 -38 111 -39 112 -125 112 l-75 0 0 -85 c0 -50 -4 -85 -10 -85 -16 0 -13
387 3 393 23 10 144 7 176 -4z m1246 -3 c26 -11 36 -23 44 -54 13 -48 4 -100
-20 -115 -17 -10 -16 -12 7 -34 20 -19 24 -31 24 -81 0 -84 -18 -104 -97 -110
-113 -8 -153 22 -153 113 0 32 7 51 23 71 23 26 23 28 5 46 -26 26 -25 107 2
141 30 37 105 48 165 23z m-863 -186 c37 -102 67 -192 65 -200 -1 -8 -16 20
-31 63 l-29 78 -95 -3 -94 -3 -25 -65 c-13 -36 -29 -69 -35 -75 -8 -7 -9 -5
-6 5 3 8 36 100 73 203 90 246 86 246 177 -3z m303 173 c44 -114 135 -376 131
-380 -5 -6 -30 49 -47 108 l-12 39 -96 0 -97 0 -24 -71 c-22 -63 -40 -95 -40
-72 0 5 29 90 65 189 36 98 68 185 70 192 7 18 42 15 50 -5z m848 10 l-93 -4
0 -73 0 -73 60 -6 c67 -7 114 -27 124 -52 3 -9 6 -41 6 -72 0 -47 -4 -59 -29
-84 -27 -26 -36 -29 -93 -28 -35 0 -72 4 -83 8 -12 5 14 8 63 7 80 -1 85 0
108 27 31 36 34 113 5 148 -16 20 -30 24 -92 27 -41 2 -78 8 -82 12 -5 4 -5
44 -2 89 l8 81 96 -2 96 -2 -92 -3z m-2633 -693 c24 -24 27 -87 6 -115 -8 -11
-26 -18 -46 -18 -41 0 -60 24 -60 75 0 43 27 78 60 78 11 0 29 -9 40 -20z
m290 0 c13 -13 20 -33 20 -58 0 -61 -21 -78 -87 -74 -21 2 -23 7 -23 70 0 38
3 72 7 75 14 14 64 6 83 -13z m225 4 c11 -11 14 -24 10 -38 -10 -29 -10 -47
-1 -73 4 -14 3 -23 -2 -23 -6 0 -15 14 -21 30 -7 20 -17 30 -30 30 -17 0 -21
-6 -21 -30 0 -16 -4 -30 -10 -30 -6 0 -10 32 -10 75 l0 75 34 0 c19 0 42 -7
51 -16z m390 6 c4 -6 -8 -10 -30 -10 -32 0 -36 -3 -33 -22 2 -15 13 -24 34
-30 32 -8 48 -36 38 -63 -7 -17 -44 -26 -74 -17 -22 6 -20 7 15 12 53 7 56 38
5 55 -38 13 -51 44 -30 71 14 16 66 19 75 4z m1456 0 c20 -11 26 -54 9 -65 -6
-4 -6 -15 0 -31 13 -32 13 -44 0 -44 -5 0 -10 8 -10 18 0 23 -19 42 -42 42
-13 0 -18 -8 -18 -30 0 -16 -4 -30 -10 -30 -11 0 -14 133 -3 143 10 10 52 8
74 -3z m154 0 c4 -6 -8 -10 -30 -10 -32 0 -36 -3 -33 -22 2 -13 11 -24 23 -26
31 -6 45 -22 45 -52 0 -23 -5 -30 -30 -35 -16 -3 -37 -2 -47 4 -15 9 -12 10
18 11 59 0 61 38 4 57 -22 7 -31 17 -33 38 -2 15 2 32 10 36 18 12 66 11 73
-1z m-2425 -64 l0 -65 38 -4 c32 -4 31 -4 -8 -3 l-45 1 -3 68 c-2 42 1 67 8
67 6 0 10 -26 10 -64z m574 7 c10 -32 21 -64 23 -70 3 -7 0 -13 -5 -13 -6 0
-14 9 -17 20 -5 15 -15 20 -41 20 -27 0 -34 -4 -34 -20 0 -11 -4 -20 -10 -20
-14 0 -13 8 11 78 28 82 49 83 73 5z m106 -8 c0 -53 -3 -66 -19 -75 -13 -7
-22 -7 -26 0 -3 5 1 10 9 10 13 0 16 13 16 65 0 37 4 65 10 65 6 0 10 -28 10
-65z m212 38 c2 -23 8 -29 36 -31 30 -3 32 -1 32 27 0 17 5 31 10 31 6 0 10
-30 10 -70 0 -40 -4 -70 -10 -70 -5 0 -10 16 -10 35 0 33 -2 35 -35 35 -33 0
-35 -2 -35 -35 0 -19 -4 -35 -10 -35 -6 0 -10 30 -10 70 0 68 15 98 22 43z
m234 -45 c13 -39 18 -68 12 -68 -5 0 -12 9 -15 20 -4 15 -14 20 -38 20 -24 0
-34 -5 -38 -20 -3 -11 -10 -20 -16 -20 -8 0 4 45 34 128 12 32 39 5 61 -60z
m84 41 c0 -28 2 -30 33 -27 27 2 33 8 35 31 6 53 17 26 17 -43 0 -38 -3 -70
-7 -70 -5 0 -8 16 -8 35 0 33 -2 35 -35 35 -33 0 -35 -2 -35 -35 0 -19 -4 -35
-10 -35 -6 0 -10 30 -10 70 0 40 4 70 10 70 6 0 10 -14 10 -31z m160 -39 c0
-40 -4 -70 -10 -70 -6 0 -10 30 -10 70 0 40 4 70 10 70 6 0 10 -30 10 -70z
m142 14 c3 -60 20 -83 52 -71 12 5 16 20 16 67 0 33 4 60 10 60 12 0 13 -109
2 -127 -4 -6 -19 -14 -34 -18 -43 -11 -68 23 -68 90 0 72 18 71 22 -1z m208
-6 l29 -63 1 63 c0 34 4 62 10 62 6 0 10 -30 10 -70 0 -90 -18 -93 -60 -10
-17 33 -31 60 -33 60 -1 0 0 -27 1 -60 3 -39 0 -60 -7 -60 -7 0 -11 26 -11 70
0 92 20 95 60 8z m130 -8 c0 -40 -4 -70 -10 -70 -6 0 -10 30 -10 70 0 40 4 70
10 70 6 0 10 -30 10 -70z m77 10 c9 -33 19 -60 23 -60 4 0 14 27 23 60 10 33
21 60 27 60 5 0 3 -21 -6 -47 -8 -27 -17 -58 -20 -70 -12 -43 -39 -27 -58 35
-10 31 -21 63 -23 70 -3 6 0 12 6 12 6 0 18 -27 28 -60z m181 53 c-33 -4 -38
-8 -38 -29 0 -20 5 -24 33 -26 l32 -1 -32 -4 c-29 -4 -33 -8 -33 -33 0 -26 4
-29 38 -33 32 -4 31 -4 -8 -3 l-45 1 -3 54 c-4 75 0 81 50 79 l43 -1 -37 -4z
m392 -63 c0 -40 -4 -70 -10 -70 -6 0 -10 30 -10 70 0 40 4 70 10 70 6 0 10
-30 10 -70z m138 63 c-27 -4 -28 -6 -28 -69 0 -36 -4 -64 -10 -64 -6 0 -10 28
-10 64 0 59 -2 65 -22 69 -13 2 4 4 37 4 33 0 48 -2 33 -4z m90 -28 l18 -36
17 36 c9 19 21 35 27 35 6 0 1 -19 -11 -42 -12 -24 -26 -56 -30 -73 -6 -24 -7
-26 -8 -7 -1 12 -12 45 -26 72 -14 28 -21 50 -15 50 5 0 18 -16 28 -35z
m-3013 -194 c3 -5 -9 -11 -27 -13 -33 -3 -33 -3 -33 -58 l0 -55 40 -5 c39 -5
39 -6 11 -13 -47 -13 -76 13 -76 71 0 26 4 52 8 58 14 21 66 31 77 15z m150 0
c3 -6 -12 -11 -32 -13 -38 -3 -38 -3 -41 -52 -4 -54 5 -65 53 -67 l30 -1 -28
-10 c-21 -8 -33 -6 -52 6 -21 14 -25 24 -25 66 0 39 4 52 22 64 25 18 64 21
73 7z m137 -3 c21 -17 28 -62 17 -103 -11 -41 -49 -54 -85 -30 -20 13 -24 24
-24 65 0 39 4 52 22 64 27 19 49 20 70 4z m893 3 c3 -6 -11 -11 -32 -13 -31
-2 -39 -8 -47 -30 -15 -41 3 -83 34 -83 21 0 26 5 28 33 4 45 22 40 22 -6 0
-29 -4 -38 -17 -38 -10 -1 -25 -4 -33 -8 -9 -3 -24 0 -35 8 -27 19 -27 112 0
132 21 16 71 19 80 5z m360 -1 c4 -6 -8 -10 -30 -10 -32 0 -36 -3 -33 -22 2
-13 11 -24 23 -26 30 -6 45 -22 45 -48 0 -32 -40 -52 -72 -36 -21 10 -20 11
13 11 59 1 61 37 4 56 -23 8 -31 17 -33 39 -2 16 2 32 10 37 18 12 66 11 73
-1z m140 1 c3 -6 -12 -11 -32 -13 -39 -3 -52 -24 -23 -38 47 -22 55 -29 58
-53 4 -34 -35 -56 -70 -39 -21 10 -20 11 15 11 32 1 37 4 37 24 0 17 -8 25
-32 32 -26 8 -34 16 -36 39 -2 16 2 32 10 37 18 12 65 11 73 0z m157 -14 c4
-7 8 -33 8 -59 0 -40 -4 -50 -26 -65 -24 -15 -29 -15 -53 -2 -20 11 -27 24
-29 53 -5 53 4 84 26 89 24 7 65 -2 74 -16z m153 13 c4 -6 -8 -10 -28 -10 -38
0 -47 -12 -47 -64 0 -40 15 -56 55 -57 28 0 28 -1 9 -11 -16 -7 -30 -6 -50 4
-26 12 -29 19 -32 65 -3 44 0 53 20 67 25 18 64 21 73 6z m590 -6 c11 -12 15
-31 13 -67 -3 -43 -7 -54 -29 -66 -24 -13 -29 -13 -53 2 -22 15 -26 25 -26 67
0 39 4 52 22 64 29 20 52 20 73 0z m543 -17 c21 -43 7 -106 -26 -118 -14 -5
-33 -7 -41 -3 -12 6 -10 8 9 11 23 4 50 27 50 44 0 3 -11 4 -25 1 -48 -9 -75
47 -39 83 23 23 57 15 72 -18z m141 20 c6 -8 10 -29 10 -48 -1 -19 0 -38 1
-44 9 -40 -23 -61 -68 -44 -18 7 -21 16 -21 68 1 46 5 63 17 71 24 13 48 12
61 -3z m-3413 -69 c12 -38 19 -68 14 -68 -5 0 -12 9 -15 20 -5 15 -15 20 -40
20 -24 0 -34 -5 -38 -20 -3 -11 -10 -20 -16 -20 -8 0 4 45 34 128 12 32 39 5
61 -60z m537 -45 c5 -7 17 -13 28 -13 25 0 42 42 37 93 -2 20 0 37 4 37 5 0 8
-29 8 -65 0 -61 -2 -66 -25 -75 -16 -6 -34 -6 -50 0 -23 9 -25 14 -24 77 l2
68 6 -55 c3 -30 10 -61 14 -67z m197 57 c17 -33 32 -60 33 -60 2 0 1 27 -1 60
-3 40 -1 60 7 60 7 0 11 -25 11 -70 0 -92 -20 -95 -60 -7 l-29 62 -1 -62 c0
-35 -4 -63 -10 -63 -6 0 -10 30 -10 70 0 90 18 93 60 10z m188 53 c-27 -4 -28
-6 -28 -69 0 -36 -4 -64 -10 -64 -6 0 -10 28 -10 64 0 59 -2 65 -22 69 -13 2
4 4 37 4 33 0 48 -2 33 -4z m82 -63 c0 -40 -4 -70 -10 -70 -6 0 -10 30 -10 70
0 40 4 70 10 70 6 0 10 -30 10 -70z m120 10 c17 -33 32 -60 33 -60 2 0 1 27
-1 60 -3 40 -1 60 7 60 7 0 11 -25 11 -70 0 -92 -20 -95 -60 -7 l-29 62 -1
-62 c0 -35 -4 -63 -10 -63 -6 0 -10 30 -10 70 0 90 18 93 60 10z m414 3 c10
-32 21 -64 23 -70 3 -7 0 -13 -5 -13 -6 0 -14 9 -17 20 -5 15 -15 20 -41 20
-27 0 -34 -4 -34 -20 0 -11 -4 -20 -10 -20 -14 0 -13 8 11 78 28 82 49 83 73
5z m671 -13 c0 -38 -3 -70 -7 -70 -5 0 -8 32 -8 70 0 39 3 70 8 70 4 0 7 -31
7 -70z m139 13 c10 -32 21 -64 23 -70 3 -7 1 -13 -5 -13 -5 0 -12 9 -15 20 -4
15 -14 20 -37 20 -23 0 -33 -5 -37 -20 -5 -19 -23 -29 -23 -12 0 4 9 36 21 70
28 82 49 83 73 5z m154 50 c-27 -4 -28 -6 -28 -69 0 -36 -4 -64 -10 -64 -6 0
-10 28 -10 64 0 63 -1 65 -27 69 -16 2 1 4 37 4 36 0 53 -2 38 -4z m82 -63 c0
-40 -4 -70 -10 -70 -6 0 -10 30 -10 70 0 40 4 70 10 70 6 0 10 -30 10 -70z
m279 8 l29 -63 1 63 c1 34 5 62 11 62 6 0 10 -30 10 -70 0 -90 -18 -93 -60
-10 -17 33 -32 60 -35 60 -2 0 -3 -27 -2 -60 1 -33 -1 -60 -5 -60 -5 0 -8 32
-8 70 0 91 19 94 59 8z m259 -10 l-2 -73 -3 63 c-4 54 -6 62 -24 62 -11 0 -17
5 -14 10 3 6 15 10 26 10 17 0 19 -7 17 -72z m412 63 c-47 -8 -51 -35 -8 -47
27 -8 34 -15 36 -41 4 -38 -23 -57 -65 -46 l-28 7 35 6 c29 4 35 9 35 30 0 20
-6 26 -27 28 -25 3 -28 8 -28 38 0 34 0 34 43 33 l42 -2 -35 -6z m-500 -81 c0
-5 -13 -10 -29 -10 -17 0 -33 5 -36 10 -4 6 8 10 29 10 20 0 36 -4 36 -10z"/>
<path d="M2383 4689 c-41 -12 -137 -99 -169 -155 l-25 -43 22 -30 c17 -24 21
-39 17 -76 -7 -58 -37 -91 -97 -109 l-46 -13 -32 -111 c-50 -176 -61 -153 107
-221 80 -32 175 -72 212 -89 l67 -31 93 43 c102 48 260 111 302 122 24 6 26 9
20 43 -14 76 -76 275 -112 360 -44 102 -119 218 -165 257 -66 56 -127 72 -194
53z"/>
<path d="M1252 4029 c-184 -58 -198 -224 -38 -462 58 -88 191 -240 268 -307
l47 -41 103 83 c57 46 138 108 180 138 87 60 80 43 99 230 6 63 17 151 25 195
8 43 10 82 6 86 -4 4 -47 20 -97 34 -223 65 -470 83 -593 44z"/>
<path d="M3235 4035 c-82 -15 -273 -64 -296 -76 -14 -7 -14 -18 2 -111 9 -57
22 -159 29 -228 l13 -126 65 -44 c35 -25 117 -87 180 -137 64 -51 119 -93 123
-93 20 0 246 252 304 340 168 251 151 416 -48 475 -63 19 -271 18 -372 0z"/>
<path d="M2825 3922 c-64 -24 -325 -134 -325 -137 0 -2 35 -23 78 -46 42 -23
136 -77 208 -120 73 -44 134 -79 136 -79 9 0 -39 367 -51 386 -4 7 -18 6 -46
-4z"/>
<path d="M1992 3883 c-16 -72 -47 -331 -41 -337 3 -3 75 36 160 87 85 50 178
103 207 116 29 14 52 28 52 32 0 13 -328 149 -359 149 -5 0 -14 -21 -19 -47z"/>
<path d="M2330 3699 c-100 -53 -330 -189 -368 -217 -20 -16 -22 -28 -28 -177
-4 -88 -4 -217 1 -286 l7 -126 133 -82 c74 -45 186 -109 250 -142 l115 -61 98
52 c106 57 333 191 372 220 l25 19 0 280 c0 236 -2 283 -15 295 -38 38 -455
276 -482 276 -7 0 -56 -23 -108 -51z m202 -219 c79 -24 142 -76 183 -151 27
-49 30 -63 30 -144 0 -105 -19 -155 -86 -223 -67 -67 -118 -87 -224 -87 -81 0
-95 3 -144 30 -187 103 -224 350 -75 498 89 89 195 114 316 77z"/>
<path d="M1764 3341 c-155 -117 -202 -159 -189 -168 6 -5 56 -45 112 -90 92
-73 187 -143 195 -143 2 0 3 110 3 245 0 135 -1 245 -1 245 -1 0 -55 -40 -120
-89z"/>
<path d="M2990 3186 c0 -135 3 -246 6 -246 8 0 179 128 253 189 l63 54 -28 23
c-16 13 -83 65 -149 116 -66 50 -126 96 -132 101 -10 7 -13 -41 -13 -237z"/>
<path d="M1416 3040 c-180 -187 -280 -339 -307 -469 -31 -151 65 -244 268
-258 81 -6 83 -5 92 19 17 45 67 78 118 78 38 0 50 -5 80 -35 l35 -35 116 30
c64 17 120 34 125 39 4 4 1 48 -7 97 -8 49 -20 141 -26 204 -7 63 -13 124 -15
135 -3 12 -64 66 -152 132 -81 62 -164 126 -184 143 l-36 30 -107 -110z"/>
<path d="M3265 3079 c-38 -32 -118 -93 -176 -136 l-107 -76 -7 -76 c-5 -59
-31 -261 -48 -370 -3 -18 157 -64 322 -92 206 -35 373 -18 456 46 75 57 85
170 27 298 -44 96 -69 129 -93 122 -30 -10 -86 13 -115 48 -24 28 -26 37 -21
91 l5 59 -74 73 c-41 41 -80 74 -87 73 -7 0 -43 -27 -82 -60z"/>
<path d="M1955 2747 c8 -93 41 -306 49 -314 11 -11 366 133 366 148 0 5 -35
26 -77 48 -43 21 -138 75 -212 120 l-134 80 8 -82z"/>
<path d="M2795 2750 c-60 -37 -153 -90 -205 -118 l-94 -51 87 -40 c115 -53
278 -114 285 -106 18 18 62 386 46 384 -5 0 -58 -31 -119 -69z"/>
<path d="M2335 2506 c-49 -24 -142 -62 -205 -86 -63 -24 -116 -44 -117 -45 -5
-2 56 -221 80 -290 74 -212 175 -360 273 -401 142 -60 282 66 395 355 35 90
105 329 97 336 -2 1 -68 28 -148 60 -80 32 -171 70 -202 86 -32 16 -63 29 -70
28 -7 0 -53 -20 -103 -43z"/>
<path d="M1484 1531 c-42 -11 -52 -17 -71 -54 -25 -46 -24 -219 1 -265 44 -84
186 -80 223 5 22 51 22 204 0 255 -8 20 -24 41 -34 46 -28 15 -85 21 -119 13z"/>
<path d="M1810 1435 l0 -95 79 0 c100 0 121 14 128 86 4 40 1 54 -17 77 -20
26 -26 27 -106 27 l-84 0 0 -95z"/>
<path d="M3076 1514 c-34 -34 -32 -125 4 -144 10 -5 48 -10 83 -10 79 0 97 15
97 83 0 69 -22 87 -104 87 -45 0 -69 -5 -80 -16z"/>
<path d="M3065 1320 c-28 -30 -27 -113 1 -141 24 -23 102 -31 157 -16 48 13
66 118 27 157 -29 29 -159 29 -185 0z"/>
<path d="M2227 1423 c-20 -60 -37 -111 -37 -115 0 -5 38 -8 85 -8 47 0 85 3
84 8 -1 21 -77 216 -85 219 -5 2 -26 -45 -47 -104z"/>
<path d="M2595 1428 c-21 -57 -40 -109 -42 -115 -4 -10 17 -13 87 -13 50 0 90
4 88 8 -1 4 -20 56 -42 115 -21 59 -42 107 -46 107 -4 0 -25 -46 -45 -102z"/>
<path d="M811 826 c-7 -8 -11 -31 -9 -52 6 -72 70 -72 76 0 4 41 -11 66 -38
66 -10 0 -23 -6 -29 -14z"/>
<path d="M1100 780 c0 -56 2 -60 23 -60 33 0 47 18 47 60 0 42 -14 60 -47 60
-21 0 -23 -4 -23 -60z"/>
<path d="M1330 810 c0 -23 5 -30 19 -30 24 0 45 25 37 45 -3 8 -17 15 -31 15
-21 0 -25 -5 -25 -30z"/>
<path d="M3180 816 c0 -30 13 -40 41 -31 31 10 21 49 -13 53 -24 3 -28 0 -28
-22z"/>
<path d="M1493 805 c-11 -34 -10 -35 14 -35 22 0 24 3 18 28 -10 43 -21 45
-32 7z"/>
<path d="M2041 810 c-14 -42 -15 -40 15 -40 22 0 24 3 18 23 -14 47 -21 51
-33 17z"/>
<path d="M906 594 c-11 -29 -6 -81 9 -94 38 -31 77 26 56 83 -12 31 -55 38
-65 11z"/>
<path d="M2444 597 c-3 -8 -4 -34 -2 -58 3 -41 5 -44 33 -44 30 0 30 1 30 55
0 53 -1 55 -28 58 -17 2 -29 -2 -33 -11z"/>
<path d="M3197 604 c-4 -4 -7 -26 -7 -49 0 -46 17 -69 47 -63 15 3 18 13 18
58 0 51 -2 55 -25 58 -14 2 -29 0 -33 -4z"/>
<path d="M3747 604 c-13 -13 -7 -55 8 -60 21 -9 47 15 43 40 -3 21 -37 34 -51
20z"/>
<path d="M3890 585 c0 -20 5 -25 24 -25 25 0 36 15 29 38 -3 6 -16 12 -29 12
-19 0 -24 -5 -24 -25z"/>
<path d="M3890 535 c-18 -21 -5 -45 25 -45 14 0 28 7 31 15 7 17 -12 45 -31
45 -7 0 -18 -7 -25 -15z"/>
<path d="M483 575 c-11 -34 -10 -35 14 -35 21 0 23 3 17 23 -14 46 -20 48 -31
12z"/>
<path d="M2023 575 c-11 -34 -10 -35 14 -35 22 0 24 3 18 28 -10 43 -21 45
-32 7z"/>
<path d="M2840 600 c0 -8 -3 -25 -6 -37 -5 -19 -2 -23 16 -23 19 0 21 4 15 28
-8 32 -25 53 -25 32z"/>
</g>
</svg>
